<svg version="1.0" xmlns="http://www.w3.org/2000/svg"
 width="800.000000pt" height="800.000000pt" viewBox="0 0 800.000000 800.000000"
 preserveAspectRatio="xMidYMid meet">
<path d="M3937 7064 c-14 -47 -82 -200 -91 -206 -6 -4 -8 -8 -3 -8 4 0 -1 -17
-12 -39 -11 -21 -17 -41 -14 -45 4 -3 1 -6 -5 -6 -7 0 -12 -6 -12 -13 0 -11
-54 -146 -90 -222 -5 -11 -21 -49 -36 -85 -14 -36 -34 -83 -44 -105 -10 -22
-37 -85 -60 -140 -23 -55 -48 -113 -55 -128 -12 -24 -11 -34 3 -75 9 -26 21
-50 25 -53 5 -3 8 -9 7 -13 -1 -7 32 -101 54 -151 7 -16 23 -56 36 -87 17 -44
28 -58 44 -60 36 -2 70 -6 96 -12 14 -2 48 -7 75 -11 28 -3 64 -8 80 -10 17
-3 48 -7 70 -10 22 -3 72 -10 110 -16 39 -6 81 -12 95 -14 14 -1 50 -6 80 -10
30 -4 64 -9 75 -10 11 -2 40 -6 65 -10 99 -14 150 -21 217 -30 23 -3 55 -8 70
-10 15 -2 43 -6 61 -9 17 -3 47 -8 65 -12 17 -3 33 -8 35 -13 3 -10 480 -722
498 -744 8 -9 14 -22 14 -27 0 -6 5 -10 10 -10 6 0 10 -6 11 -12 1 -16 92
-141 101 -140 4 0 22 -4 40 -9 18 -6 60 -17 93 -26 73 -18 68 -16 185 -48 52
-14 107 -27 122 -30 15 -3 40 -10 55 -16 15 -6 39 -12 53 -14 14 -3 75 -18
135 -35 61 -17 117 -32 125 -33 8 -1 21 -6 28 -11 7 -4 16 -5 19 -2 3 3 13 1
23 -4 9 -5 28 -11 41 -13 13 -3 44 -11 69 -18 25 -7 50 -13 55 -15 22 -4 376
-97 460 -120 50 -14 101 -27 115 -30 14 -2 44 -10 67 -17 l42 -12 -32 -50
c-17 -28 -34 -52 -37 -55 -11 -10 -80 -118 -101 -157 -7 -13 -16 -23 -21 -23
-4 0 -8 -7 -8 -15 0 -8 -4 -15 -10 -15 -5 0 -10 -5 -10 -11 0 -6 -8 -21 -17
-34 -20 -25 -29 -38 -75 -110 -18 -27 -36 -54 -41 -60 -4 -5 -43 -64 -87 -130
-43 -66 -84 -126 -90 -133 -21 -23 5 -12 35 16 17 15 62 54 100 87 39 33 72
62 75 65 51 52 136 113 162 116 18 3 49 10 68 16 19 7 40 13 47 14 27 5 125
67 173 111 68 61 101 107 424 588 33 50 64 92 68 93 5 2 8 10 8 18 0 8 5 14
10 14 6 0 10 7 10 15 0 8 4 15 9 15 5 0 13 9 16 20 3 11 12 26 18 32 7 7 24
32 39 55 l28 42 -43 12 c-23 6 -49 12 -57 14 -8 2 -62 15 -120 30 -100 25
-115 29 -132 35 -29 8 -158 42 -178 46 -14 2 -32 7 -40 11 -8 3 -31 9 -50 13
-19 5 -78 20 -130 33 -52 14 -185 48 -295 76 -110 28 -207 54 -215 58 -8 3
-24 7 -35 9 -17 2 -68 15 -155 39 -8 2 -39 10 -69 17 l-54 13 -88 134 c-49 74
-89 137 -89 141 0 4 -9 15 -20 25 -11 10 -20 22 -20 28 0 5 -12 26 -27 46 -16
20 -32 44 -38 53 -20 34 -257 394 -273 415 -17 22 -37 28 -132 38 -25 2 -116
13 -204 24 -87 11 -161 20 -165 19 -3 0 -9 1 -13 2 -5 1 -16 3 -25 4 -41 5
-150 18 -173 21 -14 2 -50 7 -80 10 -30 3 -62 7 -70 10 -8 2 -42 6 -75 10 -81
8 -133 14 -175 20 -19 3 -57 7 -85 10 -27 3 -61 7 -75 9 -14 3 -47 7 -75 11
-64 8 -70 15 -14 16 24 1 69 2 99 4 30 2 79 3 108 4 28 1 52 5 52 11 0 9 -22
60 -90 205 -103 222 -270 595 -270 604 0 5 -6 13 -13 19 -10 9 -19 0 -40 -41
-15 -29 -43 -79 -63 -112 -19 -33 -40 -72 -47 -87 -6 -16 -15 -28 -19 -28 -4
0 -8 -6 -8 -14 0 -7 -6 -18 -13 -24 -10 -9 -32 28 -102 171 -49 100 -89 184
-90 187 -1 3 -17 36 -36 74 -28 53 -37 65 -42 50z m38 -509 c17 -53 91 -257
105 -290 38 -92 40 -87 -77 -206 -59 -60 -112 -109 -117 -109 -6 0 -22 19 -36
42 -14 22 -29 46 -35 52 -5 6 -23 31 -40 56 -16 25 -33 47 -37 48 -17 8 -5 43
52 160 33 67 59 123 57 125 -1 1 8 16 20 33 12 16 25 42 28 57 4 15 10 27 14
27 4 0 13 16 20 36 15 42 23 37 46 -31z m1221 -1139 c18 -4 72 -10 169 -21
125 -14 108 -3 255 -165 47 -52 92 -102 100 -110 8 -9 26 -28 39 -42 l24 -27
-34 9 c-19 5 -47 11 -64 14 -16 2 -120 21 -230 42 l-200 37 -65 90 c-36 49
-69 95 -75 101 -5 6 -23 28 -38 49 l-29 38 64 -5 c34 -3 72 -8 84 -10z"/>
<path d="M1410 6471 c0 -11 -5 -23 -10 -26 -6 -4 -8 -11 -5 -16 4 -5 1 -9 -4
-9 -6 0 -11 -4 -11 -10 0 -9 -92 -234 -140 -345 -15 -34 -40 -94 -105 -250 -7
-16 -36 -86 -64 -155 -29 -69 -58 -138 -66 -155 -12 -25 -34 -78 -40 -95 -3
-8 -22 -53 -40 -95 -10 -22 -19 -44 -20 -50 -2 -5 -14 -36 -29 -67 -14 -31
-26 -59 -26 -62 0 -3 -14 -36 -31 -73 -46 -100 -46 -112 6 -258 25 -71 47
-137 50 -145 2 -8 10 -34 18 -57 14 -38 14 -44 -4 -75 -10 -18 -28 -51 -40
-73 -12 -22 -25 -42 -29 -45 -4 -3 -10 -15 -14 -27 -4 -13 -12 -23 -17 -23 -5
0 -9 -5 -9 -12 0 -7 -11 -28 -24 -47 -23 -36 -351 -583 -388 -651 -11 -19 -27
-43 -36 -52 -8 -10 -11 -18 -7 -18 4 0 1 -8 -7 -17 -8 -10 -66 -103 -128 -208
-62 -104 -121 -203 -131 -220 -11 -16 -22 -37 -26 -45 -3 -8 -10 -17 -14 -20
-14 -10 -14 -32 1 -35 8 -1 47 -5 85 -9 39 -4 108 -11 155 -16 47 -5 112 -12
145 -15 33 -3 76 -8 95 -11 19 -3 58 -7 85 -9 186 -18 198 -21 218 -53 9 -15
27 -40 41 -57 27 -32 35 -43 93 -121 21 -28 119 -157 218 -288 99 -130 185
-244 190 -253 6 -9 22 -30 38 -47 15 -17 27 -34 27 -38 0 -3 6 -13 13 -20 7
-7 76 -96 152 -198 77 -102 145 -192 152 -200 23 -28 128 -168 143 -191 8 -12
24 -34 36 -48 29 -36 105 -137 199 -261 44 -58 85 -111 92 -118 7 -7 13 -17
13 -21 0 -4 8 -16 18 -27 10 -10 34 -41 54 -67 l36 -48 29 51 c15 28 77 133
137 233 105 175 121 202 179 294 15 24 27 45 27 48 0 2 20 36 45 75 25 39 45
72 45 74 0 2 34 59 75 126 41 67 75 123 75 125 0 1 29 50 65 108 35 59 61 108
57 110 -4 3 -34 10 -67 17 -33 8 -68 17 -77 22 -9 4 -34 11 -55 14 -21 3 -56
12 -78 19 -22 8 -51 16 -65 19 -14 2 -36 9 -50 14 -19 8 -2 11 75 11 55 0 102
0 105 1 3 0 93 3 200 5 257 5 583 17 817 29 45 2 87 7 93 11 5 3 10 1 10 -5 0
-6 4 -9 8 -6 9 5 62 10 242 21 52 4 118 8 145 10 145 12 212 17 235 20 14 2
54 6 90 10 36 3 79 9 95 12 17 3 48 7 70 9 22 2 60 8 85 15 25 6 55 13 66 15
96 18 278 93 341 140 17 13 35 24 39 24 17 0 160 139 226 220 103 125 103 125
242 336 70 104 130 194 134 199 13 18 47 70 52 80 7 13 83 129 90 135 9 9 31
52 28 54 -4 3 -165 45 -193 50 -11 2 -63 16 -115 31 -52 15 -104 29 -115 30
-11 2 -117 29 -235 60 -118 31 -224 58 -235 60 -11 2 -20 4 -20 5 0 1 -7 3
-15 5 -19 4 -344 88 -470 122 -52 14 -112 29 -132 34 -49 12 -94 23 -198 49
l-85 21 -60 85 c-33 47 -66 91 -72 99 -7 7 -13 16 -13 19 0 3 -7 14 -15 23 -8
10 -51 70 -95 133 -44 63 -87 123 -95 133 -8 9 -15 21 -15 26 0 5 -4 11 -8 13
-4 2 -72 94 -150 205 -79 111 -147 205 -153 208 -8 6 -18 8 -66 19 -10 2 -45
7 -78 10 -59 7 -111 15 -150 22 -20 3 -56 9 -125 19 -19 2 -46 7 -60 10 -14 3
-41 7 -60 9 -19 3 -53 7 -75 10 -66 10 -178 27 -205 31 -70 11 -159 24 -195
30 -22 4 -53 8 -70 10 -16 3 -46 7 -65 10 -19 3 -48 7 -65 10 -119 16 -132 18
-190 30 -11 2 -40 6 -65 9 -25 4 -54 8 -65 10 -11 3 -31 5 -44 5 -13 1 -22 4
-18 7 7 7 244 7 256 -1 6 -3 12 -1 15 4 4 6 18 6 37 1 43 -13 45 4 9 78 -16
34 -30 64 -30 66 0 2 -21 48 -46 103 -69 148 -80 172 -112 243 -61 134 -76
167 -119 258 -23 52 -43 96 -43 98 0 3 -20 45 -44 95 l-44 91 -38 -69 c-21
-37 -42 -69 -46 -71 -4 -2 -8 -7 -8 -12 0 -11 -128 -228 -138 -234 -5 -3 -22
24 -38 59 -15 36 -32 65 -36 65 -4 0 -8 5 -8 11 0 16 -204 428 -212 429 -5 0
-8 -9 -8 -19z m31 -665 c5 -6 9 -18 9 -28 0 -10 4 -26 9 -36 15 -29 27 -63 65
-177 21 -60 58 -171 84 -246 l46 -137 -148 -146 c-81 -80 -151 -146 -155 -145
-8 0 -175 237 -179 253 -1 7 -11 18 -21 25 -21 16 -18 27 40 145 16 32 29 62
29 66 0 5 14 39 31 77 17 37 39 86 49 108 21 48 104 241 115 270 l8 20 5 -20
c2 -11 8 -24 13 -29z m1394 -1231 c28 -4 61 -8 75 -10 14 -2 45 -6 70 -10 25
-3 65 -8 90 -10 25 -3 59 -7 75 -10 26 -4 83 -12 107 -14 9 -1 65 -62 168
-180 25 -29 56 -65 70 -80 14 -15 42 -47 64 -70 l39 -43 -48 7 c-27 3 -51 8
-55 10 -3 2 -26 6 -51 9 -24 3 -55 8 -69 11 -14 3 -40 8 -59 11 -18 3 -43 8
-55 10 -26 5 -135 24 -156 27 -8 2 -19 5 -25 8 -5 3 -26 6 -45 8 -19 1 -40 9
-46 17 -6 8 -20 26 -30 40 -11 15 -39 54 -63 88 -24 33 -56 77 -71 96 -67 89
-74 103 -54 97 10 -3 42 -9 69 -12z"/>
<path d="M4086 4998 c17 -29 120 -163 127 -166 4 -2 7 -8 7 -13 0 -5 18 -32
40 -60 22 -28 44 -57 48 -65 4 -8 37 -19 73 -25 35 -6 74 -13 87 -15 12 -2 32
-6 45 -8 12 -2 63 -11 112 -20 50 -9 104 -18 120 -21 17 -3 54 -10 83 -16 30
-6 56 -8 59 -6 5 6 -6 19 -164 194 -149 165 -144 161 -198 167 -27 3 -61 8
-75 11 -14 3 -41 8 -60 11 -19 3 -62 10 -95 15 -33 5 -73 12 -90 14 -16 2 -52
6 -78 10 -39 5 -47 3 -41 -7z"/>
</g>
</svg>
