<svg viewBox="0 0 66 50" xmlns="http://www.w3.org/2000/svg" fill="currentColor"><path d="M35.3574 24.341L29.8616 16.6277L16.4092 14.615H19.7119L15.8674 6.23945L13.9419 9.4663L11.5856 4.75263L6.31826 17.2445L7.41481 20.4779L0 32.8204L6.34437 33.4892L18.896 50L24.9663 39.9299L21.3241 38.9884C21.3241 38.9884 30.6514 38.9235 37.6746 38.2548C44.6978 37.586 45.1481 35.7032 50.2132 28.1392L35.3574 24.328V24.341ZM11.0439 17.8289L9.26199 15.3487L11.6248 9.97273L13.4981 15.3941L11.0374 17.8289H11.0439ZM24.418 22.9386L22.4272 20.2441L26.6111 20.7895L29.3198 23.8216L24.4114 22.9451L24.418 22.9386ZM37.3678 17.4068L40.0113 20.3155L35.24 19.491L33.2426 16.777L37.3678 17.4133V17.4068ZM52.4324 16.9069L47.7981 9.9078L36.1081 8.47293L38.98 8.34307L35.8209 1.42189L34.2674 4.19426L32.1983 0L28.5758 8.4989L29.8747 11.7517L39.7176 13.1217L44.8675 20.7635L59.077 24.4773L54.619 31.1453L57.5366 28.6262C57.5366 28.6262 59.5404 28.6132 60.9829 26.5225C62.4254 24.4319 65.2778 20.2246 65.2778 20.2246L52.4324 16.9069ZM31.7284 9.25204L30.3838 7.36917L32.2114 3.68783L33.5755 7.35619L31.7284 9.25204ZM42.8897 15.6473L41.1927 13.3619L44.75 13.8099L47.165 16.4394L42.8897 15.6408V15.6473Z"/></svg>
