<svg viewBox="0 0 100 15" fill="currentColor" xmlns="http://www.w3.org/2000/svg"><path d="M2.94161 15.0261C2.39834 15.0261 1.90145 14.887 1.45093 14.6087C1.01366 14.3304 0.662528 13.9617 0.397515 13.5026C0.132503 13.0296 0 12.5078 0 11.9374V3.0887C0 2.51824 0.132503 2.00348 0.397515 1.54435C0.662528 1.07133 1.01366 0.695674 1.45093 0.417392C1.90145 0.139128 2.39834 0 2.94161 0H14.2708V3.25565H3.73665C3.52464 3.25565 3.35901 3.31128 3.23975 3.42261C3.13375 3.53394 3.08075 3.7078 3.08075 3.94435V11.0817C3.08075 11.3043 3.13375 11.4783 3.23975 11.6035C3.35901 11.7148 3.52464 11.7704 3.73665 11.7704H14.2708V15.0261H2.94161ZM17.5755 15.0261V0H30.7929V3.25565H20.696V5.88522H28.8252V9.14087H20.696V11.7704H30.7929V15.0261H17.5755ZM45.0562 15.0261L40.9022 9.82957H44.937L48.2363 13.92V15.0261H45.0562ZM33.9457 15.0261V0.0208693H45.2947C45.838 0.0208693 46.3283 0.159998 46.7655 0.438261C47.216 0.716543 47.5738 1.0922 47.8388 1.56522C48.1171 2.03824 48.2562 2.55307 48.2562 3.10957V6.9913C48.2562 7.5478 48.1171 8.06263 47.8388 8.53565C47.5738 9.00867 47.216 9.38433 46.7655 9.66261C46.3283 9.94089 45.838 10.08 45.2947 10.08L37.0264 10.1009V15.0261H33.9457ZM37.0264 6.82435H45.1357V3.25565H37.0264V6.82435ZM51.5993 15.0261V0H62.4118C62.9416 0 63.4255 0.139128 63.8627 0.417392C64.313 0.695674 64.6708 1.07133 64.936 1.54435C65.2143 2.00348 65.3534 2.51824 65.3534 3.0887V5.90609C65.3534 6.08694 65.3398 6.26087 65.3137 6.42783C65.3 6.58089 65.2671 6.72698 65.2143 6.86609C65.413 7.13041 65.5783 7.43654 65.7112 7.78435C65.8435 8.13215 65.9099 8.48002 65.9099 8.82783V11.9374C65.9099 12.4939 65.7708 13.0087 65.4925 13.4817C65.2273 13.9548 64.8696 14.3304 64.4193 14.6087C63.982 14.887 63.4913 15.0261 62.9484 15.0261H51.5993ZM54.68 11.7704H62.7894V9.01565H54.68V11.7704ZM54.68 5.76H62.2329V3.25565H54.68V5.76ZM69.3093 15.0261V0H82.5267V3.25565H72.4298V5.88522H80.559V9.14087H72.4298V11.7704H82.5267V15.0261H69.3093ZM96.7901 15.0261L92.636 9.82957H96.6708L99.9702 13.92V15.0261H96.7901ZM85.6795 15.0261V0.0208693H97.0286C97.5714 0.0208693 98.0621 0.159998 98.4994 0.438261C98.9497 0.716543 99.3074 1.0922 99.5727 1.56522C99.8509 2.03824 99.9901 2.55307 99.9901 3.10957V6.9913C99.9901 7.5478 99.8509 8.06263 99.5727 8.53565C99.3074 9.00867 98.9497 9.38433 98.4994 9.66261C98.0621 9.94089 97.5714 10.08 97.0286 10.08L88.7602 10.1009V15.0261H85.6795ZM88.7602 6.82435H96.8696V3.25565H88.7602V6.82435Z"/></svg>
