<svg viewBox="0 0 15 20" fill="currentColor" xmlns="http://www.w3.org/2000/svg">
<path d="M10.5076 6.62598C10.5076 5.15355 9.90609 2.20866 7.5 2.20866C5.09391 2.20866 4.49239 5.15355 4.49239 6.62598H2.24619C2.24619 4.41732 3.29696 0 7.5 0C11.703 0 12.7538 4.41732 12.7538 6.62598H10.5076ZM0 9.58333C0 8.36352 1.00566 7.37467 2.24619 7.37467H12.7538C13.9944 7.37467 15 8.36352 15 9.58333V16.958C15 18.1778 13.9944 19.1667 12.7538 19.1667H2.24619C1.00566 19.1667 0 18.1778 0 16.958V9.58333ZM8.26142 13.8082C8.71614 13.5539 9.02284 13.0732 9.02284 12.522C9.02284 11.7053 8.34956 11.0433 7.51904 11.0433C6.68852 11.0433 6.01523 11.7053 6.01523 12.522C6.01523 13.0576 6.30487 13.5268 6.73858 13.7862V15.4606C6.73858 15.8741 7.07947 16.2093 7.5 16.2093C7.92053 16.2093 8.26142 15.8741 8.26142 15.4606V13.8082Z" />
</svg>
