<svg viewBox="0 0 23 27" fill="currentColor" xmlns="http://www.w3.org/2000/svg">
<path fill-rule="evenodd" clip-rule="evenodd" d="M22.6875 5.40234C22.6875 4.92188 22.3008 4.52344 21.8203 4.52344H16.4648V2.73047C16.4648 1.03125 15.3633 0 13.5586 0H9.10547C7.30078 0 6.19922 1.03125 6.19922 2.73047V4.52344H0.878906C0.410156 4.52344 0 4.92188 0 5.40234C0 5.89453 0.410156 6.29297 0.878906 6.29297H2.27356L3.09375 23.3438C3.17578 25.0195 4.27734 26.0977 5.97656 26.0977H16.7227C18.3984 26.0977 19.5234 25.0078 19.6055 23.332L20.4141 6.29297H21.8203C22.3008 6.29297 22.6875 5.88281 22.6875 5.40234ZM8.0625 4.52344H14.6016V2.84766C14.6016 2.17969 14.1328 1.74609 13.4297 1.74609H9.23438C8.53125 1.74609 8.0625 2.17969 8.0625 2.84766V4.52344ZM6.99609 21.8203C7.01953 22.2656 7.3125 22.5352 7.76953 22.5352C8.22656 22.5352 8.53125 22.2539 8.51953 21.8203L8.14453 8.90625C8.13281 8.47266 7.82812 8.20312 7.39453 8.20312C6.92578 8.20312 6.63281 8.48438 6.64453 8.91797L6.99609 21.8203ZM10.5703 21.8203C10.5703 22.2539 10.8867 22.5352 11.3438 22.5352C11.8008 22.5352 12.1289 22.2539 12.1289 21.8203V8.91797C12.1289 8.48438 11.8008 8.20312 11.3438 8.20312C10.8867 8.20312 10.5703 8.48438 10.5703 8.91797V21.8203ZM14.1797 21.8203C14.168 22.2539 14.4727 22.5352 14.9297 22.5352C15.375 22.5352 15.668 22.2656 15.6914 21.8203L16.043 8.91797C16.0547 8.48438 15.7617 8.20312 15.293 8.20312C14.8594 8.20312 14.5547 8.47266 14.543 8.91797L14.1797 21.8203Z" />
</svg>
