<svg viewBox="0 0 28 25" fill="currentColor" xmlns="http://www.w3.org/2000/svg">
<path fill-rule="evenodd" clip-rule="evenodd" d="M27.9375 3.51562C27.9375 1.82812 26.918 0.820312 25.2305 0.820312H2.69531C1.01953 0.820312 0 1.82812 0 3.51562V17.5664C0 19.2539 1.01953 20.2734 2.69531 20.2734H10.2656V22.5352H10.1953C9.67969 22.5352 9.24609 22.957 9.24609 23.4844C9.24609 24.0117 9.67969 24.4336 10.1953 24.4336H17.7422C18.2578 24.4336 18.6797 24.0117 18.6797 23.4844C18.6797 22.957 18.2578 22.5352 17.7422 22.5352H17.6719V20.2734H25.2305C26.918 20.2734 27.9375 19.2539 27.9375 17.5664V3.51562ZM1.88672 14.6016C1.88672 14.9766 2.03906 15.1055 2.39062 15.1055H25.5352C25.8867 15.1055 26.0508 14.9766 26.0508 14.6016V3.55078C26.0508 3.02344 25.7227 2.70703 25.207 2.70703H2.73047C2.21484 2.70703 1.88672 3.02344 1.88672 3.55078V14.6016Z" />
</svg>
