<svg viewBox="0 0 19 19" fill="currentColor" xmlns="http://www.w3.org/2000/svg">
<path fill-rule="evenodd" clip-rule="evenodd" d="M18.6643 1.55914C18.6613 1.18962 18.5177 0.82246 18.2337 0.544201C17.6594 -0.0300179 16.7454 -0.0300179 16.1829 0.532482L14.6712 2.0442L16.7337 4.1067L18.2337 2.6067C18.5177 2.32264 18.6613 1.95255 18.6643 1.58296V1.55914ZM0 18.2785C0 18.5345 0.284885 18.7156 0.514903 18.5911L2.27272 17.677L0.995372 16.3997L0.0461532 18.0989C0.014133 18.1608 0 18.2215 0 18.2785ZM1.90943 14.7356L13.6633 3.05202L15.7258 5.1028L3.97193 16.7981L3.28053 17.1614L1.53443 15.4036L1.90943 14.7356Z" />
</svg>
