<svg viewBox="0 0 28 28" xmlns="http://www.w3.org/2000/svg" fill="currentColor"><path d="M25.9062 13.9531C25.9062 20.4805 20.4922 25.9062 13.9531 25.9062C7.42578 25.9062 2 20.4805 2 13.9531C2 7.41406 7.41406 2 13.9414 2C20.4805 2 25.9062 7.41406 25.9062 13.9531ZM12.9922 15.1719C13.0039 15.793 13.3438 16.1328 13.9531 16.1328C14.5391 16.1328 14.8789 15.8047 14.8906 15.1719L15.0547 8.79688C15.0664 8.17578 14.5859 7.71875 13.9414 7.71875C13.2852 7.71875 12.8281 8.16406 12.8398 8.78516L12.9922 15.1719ZM12.6406 18.8047C12.6406 19.4961 13.25 20.0586 13.9531 20.0586C14.6562 20.0586 15.2656 19.5078 15.2656 18.8047C15.2656 18.1016 14.668 17.5391 13.9531 17.5391C13.2383 17.5391 12.6406 18.1133 12.6406 18.8047Z"/></svg>
