<svg viewBox="0 0 24 25" fill="currentColor" xmlns="http://www.w3.org/2000/svg">
<path fill-rule="evenodd" clip-rule="evenodd" d="M13.3359 0C13.1953 0 13.1133 0.0820312 13.0898 0.210938C13.0736 0.287183 13.0582 0.360494 13.0433 0.431009C12.6819 2.14879 12.6696 2.20758 10.7109 2.60156C10.5703 2.625 10.4883 2.70703 10.4883 2.84766C10.4883 2.98828 10.5703 3.07031 10.7109 3.09375C12.7216 3.49819 12.7268 3.52661 13.0748 5.40368C13.0797 5.43021 13.0847 5.45711 13.0898 5.48438C13.1133 5.61328 13.1953 5.69531 13.3359 5.69531C13.4766 5.69531 13.5469 5.61328 13.5703 5.48438C13.574 5.4643 13.5777 5.44442 13.5813 5.42474C13.9336 3.52634 13.9428 3.4765 15.9609 3.09375C16.0898 3.07031 16.1836 2.98828 16.1836 2.84766C16.1836 2.70703 16.0898 2.625 15.9609 2.60156C14.0027 2.20766 13.9899 2.14881 13.6183 0.432003C13.6029 0.361183 13.587 0.287541 13.5703 0.210938C13.5469 0.0820312 13.4766 0 13.3359 0ZM19.3359 13.2422C19.3125 13.4766 19.1602 13.6289 18.9375 13.6289C18.7266 13.6289 18.5742 13.4766 18.5391 13.2656C18.1316 10.1573 18.0248 10.1368 14.8409 9.52779L14.7773 9.51562C14.5781 9.48047 14.4258 9.33984 14.4258 9.12891C14.4258 8.90625 14.5781 8.75391 14.7773 8.73047C18.0234 8.27344 18.1406 8.16797 18.5391 4.99219C18.5742 4.76953 18.7266 4.61719 18.9375 4.61719C19.1602 4.61719 19.3125 4.76953 19.3359 5.00391C19.717 8.08725 19.8932 8.12077 22.9598 8.70423C23.0051 8.71285 23.0511 8.7216 23.0977 8.73047C23.2969 8.76562 23.4492 8.90625 23.4492 9.12891C23.4492 9.35156 23.2969 9.48047 23.0508 9.51562C19.875 10.0312 19.7227 10.1133 19.3359 13.2422Z" />
<path d="M10.125 24.3397C14.3555 24.3397 17.8008 22.2304 19.3594 18.5741C19.5352 18.164 19.5117 17.8007 19.3008 17.5897C19.1367 17.414 18.8086 17.3905 18.457 17.5194C17.4844 17.9061 16.3828 18.0937 15.1055 18.0937C9.79688 18.0937 6.375 14.7655 6.375 9.56239C6.375 8.23817 6.62109 6.74989 7.01953 5.9413C7.21875 5.53114 7.21875 5.16786 7.03125 4.95692C6.83203 4.72255 6.46875 4.68739 6.01172 4.86317C2.41406 6.29286 0 10.0663 0 14.3554C0 20.0507 4.20703 24.3397 10.125 24.3397Z" />
</svg>
